<?xml version="1.0" encoding="UTF-8"?>
<svg xmlns="http://www.w3.org/2000/svg" width="219" height="230" viewBox="0 0 219 230">
<path d="M31,11h15v1h-15zM28,12h21v1h-21zM26,13h25v1h-25zM24,14h28v1h-28zM23,15h10v1h-10zM42,15h12v1h-12zM184,15h3v1h-3zM22,16h8v1h-8zM45,16h10v1h-10zM178,16h15v1h-15zM20,17h8v1h-8zM47,17h9v1h-9zM175,17h21v1h-21zM19,18h7v1h-7zM48,18h9v1h-9zM173,18h25v1h-25zM18,19h7v1h-7zM50,19h8v1h-8zM103,19h13v1h-13zM172,19h28v1h-28zM18,20h6v1h-6zM51,20h8v1h-8zM95,20h28v1h-28zM170,20h31v1h-31zM17,21h6v1h-6zM52,21h8v1h-8zM90,21h38v1h-38zM169,21h13v1h-13zM190,21h12v1h-12zM16,22h6v1h-6zM53,22h7v1h-7zM86,22h46v1h-46zM168,22h11v1h-11zM193,22h10v1h-10zM16,23h5v1h-5zM53,23h8v1h-8zM82,23h53v1h-53zM167,23h10v1h-10zM195,23h9v1h-9zM15,24h6v1h-6zM54,24h7v1h-7zM79,24h60v1h-60zM166,24h9v1h-9zM197,24h8v1h-8zM15,25h5v1h-5zM55,25h7v1h-7zM76,25h65v1h-65zM165,25h9v1h-9zM198,25h8v1h-8zM14,26h6v1h-6zM55,26h7v1h-7zM73,26h71v1h-71zM164,26h8v1h-8zM199,26h8v1h-8zM14,27h5v1h-5zM56,27h7v1h-7zM71,27h75v1h-75zM163,27h8v1h-8zM200,27h7v1h-7zM14,28h5v1h-5zM56,28h7v1h-7zM69,28h79v1h-79zM163,28h8v1h-8zM201,28h7v1h-7zM13,29h5v1h-5zM56,29h7v1h-7zM67,29h83v1h-83zM162,29h8v1h-8zM202,29h6v1h-6zM13,30h5v1h-5zM56,30h8v1h-8zM65,30h87v1h-87zM162,30h7v1h-7zM203,30h6v1h-6zM13,31h5v1h-5zM57,31h97v1h-97zM161,31h8v1h-8zM203,31h6v1h-6zM13,32h5v1h-5zM57,32h99v1h-99zM161,32h7v1h-7zM204,32h6v1h-6zM13,33h5v1h-5zM57,33h101v1h-101zM161,33h7v1h-7zM204,33h6v1h-6zM12,34h6v1h-6zM57,34h102v1h-102zM160,34h7v1h-7zM204,34h6v1h-6zM12,35h6v1h-6zM56,35h111v1h-111zM205,35h6v1h-6zM12,36h6v1h-6zM55,36h112v1h-112zM205,36h6v1h-6zM13,37h5v1h-5zM53,37h114v1h-114zM205,37h6v1h-6zM13,38h5v1h-5zM52,38h114v1h-114zM205,38h6v1h-6zM13,39h5v1h-5zM51,39h116v1h-116zM205,39h6v1h-6zM13,40h6v1h-6zM49,40h119v1h-119zM205,40h6v1h-6zM13,41h6v1h-6zM48,41h121v1h-121zM205,41h6v1h-6zM14,42h5v1h-5zM47,42h124v1h-124zM205,42h6v1h-6zM14,43h6v1h-6zM46,43h126v1h-126zM205,43h6v1h-6zM14,44h6v1h-6zM45,44h128v1h-128zM205,44h6v1h-6zM15,45h6v1h-6zM44,45h130v1h-130zM205,45h6v1h-6zM15,46h7v1h-7zM43,46h132v1h-132zM205,46h6v1h-6zM16,47h7v1h-7zM42,47h134v1h-134zM204,47h6v1h-6zM16,48h8v1h-8zM41,48h136v1h-136zM204,48h6v1h-6zM17,49h8v1h-8zM40,49h138v1h-138zM203,49h7v1h-7zM17,50h9v1h-9zM39,50h140v1h-140zM203,50h6v1h-6zM18,51h10v1h-10zM38,51h142v1h-142zM202,51h7v1h-7zM19,52h11v1h-11zM37,52h144v1h-144zM201,52h7v1h-7zM20,53h12v1h-12zM36,53h146v1h-146zM201,53h7v1h-7zM21,54h161v1h-161zM200,54h7v1h-7zM22,55h161v1h-161zM199,55h7v1h-7zM24,56h160v1h-160zM197,56h9v1h-9zM25,57h160v1h-160zM196,57h9v1h-9zM27,58h159v1h-159zM194,58h10v1h-10zM29,59h157v1h-157zM191,59h12v1h-12zM30,60h172v1h-172zM30,61h170v1h-170zM29,62h170v1h-170zM29,63h168v1h-168zM28,64h167v1h-167zM27,65h164v1h-164zM27,66h164v1h-164zM26,67h28v1h-28zM62,67h129v1h-129zM26,68h25v1h-25zM60,68h1v1h-1zM65,68h127v1h-127zM25,69h23v1h-23zM59,69h6v1h-6zM67,69h126v1h-126zM24,70h23v1h-23zM53,70h2v1h-2zM60,70h6v1h-6zM68,70h84v1h-84zM164,70h29v1h-29zM24,71h21v1h-21zM51,71h3v1h-3zM60,71h8v1h-8zM69,71h81v1h-81zM166,71h28v1h-28zM23,72h21v1h-21zM50,72h4v1h-4zM60,72h9v1h-9zM70,72h78v1h-78zM154,72h8v1h-8zM168,72h26v1h-26zM23,73h20v1h-20zM49,73h4v1h-4zM60,73h9v1h-9zM71,73h76v1h-76zM155,73h9v1h-9zM170,73h25v1h-25zM22,74h20v1h-20zM48,74h5v1h-5zM60,74h10v1h-10zM72,74h74v1h-74zM156,74h9v1h-9zM171,74h24v1h-24zM22,75h19v1h-19zM47,75h5v1h-5zM60,75h11v1h-11zM73,75h72v1h-72zM156,75h10v1h-10zM172,75h24v1h-24zM21,76h19v1h-19zM46,76h6v1h-6zM60,76h11v1h-11zM74,76h70v1h-70zM148,76h1v1h-1zM157,76h11v1h-11zM173,76h24v1h-24zM21,77h18v1h-18zM45,77h7v1h-7zM61,77h11v1h-11zM74,77h69v1h-69zM147,77h2v1h-2zM158,77h11v1h-11zM174,77h23v1h-23zM20,78h18v1h-18zM45,78h6v1h-6zM61,78h11v1h-11zM75,78h67v1h-67zM147,78h2v1h-2zM158,78h12v1h-12zM175,78h23v1h-23zM20,79h18v1h-18zM44,79h7v1h-7zM60,79h13v1h-13zM75,79h67v1h-67zM146,79h3v1h-3zM159,79h11v1h-11zM176,79h22v1h-22zM19,80h18v1h-18zM43,80h8v1h-8zM60,80h13v1h-13zM76,80h65v1h-65zM146,80h3v1h-3zM159,80h12v1h-12zM177,80h21v1h-21zM19,81h17v1h-17zM43,81h7v1h-7zM60,81h13v1h-13zM76,81h65v1h-65zM145,81h4v1h-4zM159,81h13v1h-13zM178,81h21v1h-21zM18,82h18v1h-18zM42,82h8v1h-8zM60,82h14v1h-14zM77,82h63v1h-63zM145,82h3v1h-3zM159,82h14v1h-14zM178,82h21v1h-21zM18,83h17v1h-17zM42,83h8v1h-8zM60,83h14v1h-14zM77,83h63v1h-63zM145,83h4v1h-4zM159,83h14v1h-14zM179,83h21v1h-21zM17,84h18v1h-18zM41,84h8v1h-8zM60,84h14v1h-14zM77,84h62v1h-62zM144,84h5v1h-5zM160,84h14v1h-14zM180,84h20v1h-20zM17,85h17v1h-17zM41,85h8v1h-8zM59,85h15v1h-15zM78,85h61v1h-61zM144,85h5v1h-5zM160,85h14v1h-14zM180,85h21v1h-21zM17,86h17v1h-17zM40,86h9v1h-9zM59,86h16v1h-16zM78,86h61v1h-61zM144,86h6v1h-6zM160,86h15v1h-15zM181,86h20v1h-20zM16,87h17v1h-17zM40,87h9v1h-9zM59,87h16v1h-16zM78,87h60v1h-60zM143,87h7v1h-7zM160,87h15v1h-15zM181,87h21v1h-21zM16,88h17v1h-17zM39,88h10v1h-10zM59,88h16v1h-16zM78,88h60v1h-60zM143,88h8v1h-8zM161,88h15v1h-15zM182,88h20v1h-20zM15,89h17v1h-17zM39,89h10v1h-10zM58,89h17v1h-17zM78,89h60v1h-60zM143,89h8v1h-8zM161,89h15v1h-15zM182,89h20v1h-20zM15,90h17v1h-17zM39,90h10v1h-10zM58,90h17v1h-17zM79,90h59v1h-59zM143,90h8v1h-8zM161,90h16v1h-16zM183,90h20v1h-20zM15,91h17v1h-17zM38,91h11v1h-11zM58,91h17v1h-17zM79,91h58v1h-58zM143,91h9v1h-9zM161,91h16v1h-16zM183,91h20v1h-20zM14,92h17v1h-17zM38,92h11v1h-11zM57,92h18v1h-18zM79,92h58v1h-58zM143,92h9v1h-9zM161,92h17v1h-17zM184,92h19v1h-19zM14,93h17v1h-17zM38,93h11v1h-11zM57,93h18v1h-18zM79,93h58v1h-58zM143,93h9v1h-9zM161,93h17v1h-17zM184,93h20v1h-20zM13,94h18v1h-18zM37,94h12v1h-12zM56,94h19v1h-19zM79,94h58v1h-58zM143,94h10v1h-10zM161,94h17v1h-17zM184,94h20v1h-20zM13,95h17v1h-17zM37,95h12v1h-12zM56,95h19v1h-19zM79,95h58v1h-58zM143,95h10v1h-10zM161,95h18v1h-18zM185,95h19v1h-19zM13,96h17v1h-17zM37,96h12v1h-12zM57,96h18v1h-18zM79,96h58v1h-58zM143,96h11v1h-11zM161,96h18v1h-18zM185,96h20v1h-20zM13,97h17v1h-17zM37,97h12v1h-12zM58,97h17v1h-17zM79,97h58v1h-58zM143,97h11v1h-11zM161,97h18v1h-18zM185,97h20v1h-20zM12,98h18v1h-18zM36,98h14v1h-14zM58,98h17v1h-17zM79,98h58v1h-58zM143,98h12v1h-12zM161,98h18v1h-18zM186,98h19v1h-19zM12,99h17v1h-17zM36,99h14v1h-14zM58,99h17v1h-17zM79,99h58v1h-58zM143,99h12v1h-12zM162,99h18v1h-18zM186,99h20v1h-20zM12,100h17v1h-17zM36,100h14v1h-14zM58,100h17v1h-17zM79,100h58v1h-58zM143,100h13v1h-13zM164,100h16v1h-16zM186,100h20v1h-20zM11,101h18v1h-18zM36,101h14v1h-14zM59,101h16v1h-16zM79,101h58v1h-58zM143,101h14v1h-14zM165,101h15v1h-15zM186,101h20v1h-20zM11,102h18v1h-18zM36,102h14v1h-14zM59,102h16v1h-16zM79,102h58v1h-58zM143,102h15v1h-15zM165,102h15v1h-15zM187,102h19v1h-19zM11,103h18v1h-18zM36,103h14v1h-14zM58,103h16v1h-16zM79,103h58v1h-58zM143,103h16v1h-16zM166,103h14v1h-14zM187,103h20v1h-20zM11,104h18v1h-18zM35,104h15v1h-15zM58,104h16v1h-16zM79,104h58v1h-58zM143,104h16v1h-16zM166,104h15v1h-15zM187,104h20v1h-20zM11,105h18v1h-18zM35,105h15v1h-15zM58,105h16v1h-16zM79,105h58v1h-58zM143,105h16v1h-16zM166,105h15v1h-15zM187,105h20v1h-20zM10,106h19v1h-19zM35,106h15v1h-15zM58,106h16v1h-16zM79,106h58v1h-58zM143,106h16v1h-16zM166,106h15v1h-15zM187,106h20v1h-20zM10,107h18v1h-18zM35,107h16v1h-16zM57,107h17v1h-17zM78,107h59v1h-59zM144,107h15v1h-15zM167,107h14v1h-14zM187,107h20v1h-20zM10,108h19v1h-19zM35,108h17v1h-17zM57,108h16v1h-16zM78,108h59v1h-59zM144,108h15v1h-15zM167,108h14v1h-14zM187,108h21v1h-21zM10,109h18v1h-18zM35,109h18v1h-18zM55,109h18v1h-18zM78,109h59v1h-59zM144,109h15v1h-15zM167,109h14v1h-14zM187,109h21v1h-21zM10,110h19v1h-19zM35,110h38v1h-38zM78,110h59v1h-59zM144,110h16v1h-16zM167,110h14v1h-14zM187,110h21v1h-21zM9,111h19v1h-19zM35,111h38v1h-38zM78,111h60v1h-60zM144,111h16v1h-16zM166,111h15v1h-15zM187,111h21v1h-21zM9,112h20v1h-20zM35,112h37v1h-37zM77,112h61v1h-61zM145,112h16v1h-16zM166,112h15v1h-15zM187,112h21v1h-21zM9,113h20v1h-20zM35,113h37v1h-37zM77,113h61v1h-61zM145,113h17v1h-17zM165,113h16v1h-16zM187,113h21v1h-21zM9,114h20v1h-20zM35,114h37v1h-37zM77,114h61v1h-61zM145,114h18v1h-18zM164,114h17v1h-17zM187,114h22v1h-22zM9,115h20v1h-20zM35,115h36v1h-36zM76,115h63v1h-63zM146,115h35v1h-35zM187,115h22v1h-22zM9,116h20v1h-20zM35,116h22v1h-22zM59,116h12v1h-12zM76,116h63v1h-63zM146,116h25v1h-25zM174,116h7v1h-7zM187,116h22v1h-22zM9,117h20v1h-20zM36,117h20v1h-20zM61,117h10v1h-10zM76,117h63v1h-63zM146,117h24v1h-24zM175,117h6v1h-6zM187,117h22v1h-22zM9,118h20v1h-20zM36,118h19v1h-19zM61,118h9v1h-9zM75,118h65v1h-65zM147,118h22v1h-22zM176,118h5v1h-5zM187,118h22v1h-22zM8,119h22v1h-22zM36,119h18v1h-18zM62,119h8v1h-8zM75,119h65v1h-65zM147,119h22v1h-22zM177,119h4v1h-4zM187,119h22v1h-22zM8,120h22v1h-22zM36,120h18v1h-18zM62,120h7v1h-7zM74,120h66v1h-66zM147,120h22v1h-22zM177,120h4v1h-4zM187,120h22v1h-22zM8,121h22v1h-22zM36,121h17v1h-17zM63,121h6v1h-6zM74,121h67v1h-67zM148,121h21v1h-21zM177,121h4v1h-4zM186,121h23v1h-23zM8,122h22v1h-22zM37,122h16v1h-16zM63,122h5v1h-5zM73,122h68v1h-68zM148,122h20v1h-20zM178,122h3v1h-3zM186,122h23v1h-23zM8,123h23v1h-23zM37,123h16v1h-16zM63,123h5v1h-5zM73,123h69v1h-69zM149,123h19v1h-19zM178,123h2v1h-2zM186,123h24v1h-24zM8,124h23v1h-23zM37,124h16v1h-16zM63,124h4v1h-4zM72,124h70v1h-70zM149,124h19v1h-19zM178,124h2v1h-2zM186,124h24v1h-24zM8,125h23v1h-23zM38,125h15v1h-15zM63,125h3v1h-3zM72,125h71v1h-71zM150,125h18v1h-18zM178,125h2v1h-2zM185,125h25v1h-25zM8,126h24v1h-24zM38,126h15v1h-15zM63,126h3v1h-3zM71,126h72v1h-72zM150,126h19v1h-19zM178,126h2v1h-2zM185,126h25v1h-25zM8,127h24v1h-24zM39,127h14v1h-14zM62,127h3v1h-3zM70,127h74v1h-74zM151,127h18v1h-18zM178,127h1v1h-1zM185,127h25v1h-25zM8,128h25v1h-25zM39,128h14v1h-14zM62,128h2v1h-2zM70,128h75v1h-75zM151,128h18v1h-18zM178,128h1v1h-1zM184,128h26v1h-26zM8,129h25v1h-25zM40,129h13v1h-13zM62,129h1v1h-1zM69,129h76v1h-76zM152,129h17v1h-17zM184,129h26v1h-26zM8,130h26v1h-26zM40,130h14v1h-14zM61,130h1v1h-1zM68,130h28v1h-28zM111,130h35v1h-35zM153,130h17v1h-17zM183,130h27v1h-27zM8,131h26v1h-26zM41,131h13v1h-13zM67,131h24v1h-24zM115,131h32v1h-32zM154,131h16v1h-16zM183,131h27v1h-27zM8,132h27v1h-27zM42,132h13v1h-13zM66,132h23v1h-23zM117,132h30v1h-30zM154,132h17v1h-17zM182,132h28v1h-28zM8,133h28v1h-28zM43,133h14v1h-14zM58,133h1v1h-1zM65,133h22v1h-22zM119,133h29v1h-29zM155,133h17v1h-17zM182,133h28v1h-28zM8,134h29v1h-29zM45,134h12v1h-12zM64,134h21v1h-21zM121,134h28v1h-28zM156,134h18v1h-18zM181,134h29v1h-29zM8,135h30v1h-30zM46,135h9v1h-9zM63,135h20v1h-20zM123,135h27v1h-27zM158,135h17v1h-17zM180,135h30v1h-30zM8,136h31v1h-31zM62,136h19v1h-19zM99,136h11v1h-11zM125,136h26v1h-26zM159,136h14v1h-14zM179,136h31v1h-31zM8,137h33v1h-33zM60,137h20v1h-20zM97,137h16v1h-16zM126,137h26v1h-26zM161,137h11v1h-11zM178,137h32v1h-32zM8,138h34v1h-34zM58,138h21v1h-21zM95,138h19v1h-19zM128,138h26v1h-26zM163,138h7v1h-7zM177,138h33v1h-33zM8,139h37v1h-37zM55,139h22v1h-22zM94,139h21v1h-21zM129,139h26v1h-26zM176,139h34v1h-34zM8,140h68v1h-68zM93,140h23v1h-23zM130,140h27v1h-27zM174,140h36v1h-36zM8,141h67v1h-67zM93,141h23v1h-23zM132,141h27v1h-27zM172,141h38v1h-38zM8,142h66v1h-66zM93,142h23v1h-23zM133,142h30v1h-30zM169,142h41v1h-41zM8,143h65v1h-65zM93,143h23v1h-23zM134,143h76v1h-76zM8,144h64v1h-64zM94,144h22v1h-22zM135,144h75v1h-75zM8,145h63v1h-63zM94,145h21v1h-21zM136,145h74v1h-74zM8,146h62v1h-62zM96,146h18v1h-18zM137,146h72v1h-72zM9,147h60v1h-60zM97,147h15v1h-15zM138,147h71v1h-71zM9,148h59v1h-59zM100,148h9v1h-9zM139,148h70v1h-70zM9,149h58v1h-58zM140,149h69v1h-69zM9,150h57v1h-57zM141,150h68v1h-68zM9,151h56v1h-56zM142,151h67v1h-67zM9,152h56v1h-56zM143,152h66v1h-66zM9,153h55v1h-55zM144,153h65v1h-65zM9,154h54v1h-54zM145,154h63v1h-63zM10,155h52v1h-52zM145,155h63v1h-63zM10,156h51v1h-51zM146,156h62v1h-62zM10,157h51v1h-51zM147,157h61v1h-61zM10,158h50v1h-50zM148,158h60v1h-60zM10,159h49v1h-49zM149,159h58v1h-58zM11,160h48v1h-48zM149,160h58v1h-58zM11,161h47v1h-47zM150,161h57v1h-57zM11,162h46v1h-46zM150,162h57v1h-57zM11,163h46v1h-46zM151,163h55v1h-55zM11,164h45v1h-45zM151,164h55v1h-55zM12,165h44v1h-44zM152,165h54v1h-54zM12,166h43v1h-43zM152,166h54v1h-54zM12,167h43v1h-43zM153,167h52v1h-52zM12,168h43v1h-43zM153,168h52v1h-52zM13,169h41v1h-41zM153,169h52v1h-52zM13,170h41v1h-41zM154,170h50v1h-50zM13,171h41v1h-41zM154,171h50v1h-50zM13,172h41v1h-41zM154,172h50v1h-50zM14,173h40v1h-40zM154,173h49v1h-49zM14,174h40v1h-40zM154,174h49v1h-49zM15,175h39v1h-39zM154,175h49v1h-49zM15,176h39v1h-39zM154,176h48v1h-48zM16,177h38v1h-38zM154,177h48v1h-48zM16,178h38v1h-38zM154,178h48v1h-48zM17,179h37v1h-37zM154,179h47v1h-47zM18,180h36v1h-36zM154,180h47v1h-47zM18,181h37v1h-37zM154,181h46v1h-46zM19,182h36v1h-36zM154,182h46v1h-46zM20,183h35v1h-35zM154,183h46v1h-46zM21,184h35v1h-35zM154,184h45v1h-45zM22,185h34v1h-34zM154,185h44v1h-44zM23,186h33v1h-33zM153,186h45v1h-45zM24,187h33v1h-33zM153,187h44v1h-44zM25,188h33v1h-33zM152,188h44v1h-44zM26,189h32v1h-32zM151,189h45v1h-45zM28,190h31v1h-31zM151,190h44v1h-44zM29,191h31v1h-31zM150,191h44v1h-44zM31,192h29v1h-29zM149,192h44v1h-44zM33,193h28v1h-28zM148,193h44v1h-44zM34,194h28v1h-28zM148,194h43v1h-43zM36,195h27v1h-27zM147,195h43v1h-43zM38,196h26v1h-26zM145,196h43v1h-43zM40,197h25v1h-25zM144,197h43v1h-43zM42,198h25v1h-25zM143,198h42v1h-42zM44,199h24v1h-24zM141,199h42v1h-42zM46,200h24v1h-24zM140,200h41v1h-41zM48,201h23v1h-23zM138,201h41v1h-41zM50,202h23v1h-23zM137,202h39v1h-39zM53,203h22v1h-22zM135,203h39v1h-39zM55,204h22v1h-22zM132,204h39v1h-39zM58,205h22v1h-22zM130,205h38v1h-38zM61,206h21v1h-21zM127,206h38v1h-38zM64,207h22v1h-22zM124,207h38v1h-38zM67,208h23v1h-23zM120,208h39v1h-39zM71,209h25v1h-25zM114,209h41v1h-41zM76,210h75v1h-75zM81,211h64v1h-64zM88,212h51v1h-51zM96,213h35v1h-35zM107,214h9v1h-9z" fill="#000"/>
</svg>